<svg width="500" height="500" xmlns="http://www.w3.org/2000/svg" version="1.1" enable-background="new 0 0 830 830" xml:space="preserve">
 <g id="Layer_1">
  <title>Layer 1</title>
  <g id="svg_1" stroke="null">
   <path id="svg_2" d="m145.08116,144.323l-30.20933,-29.98967l0.1278,216.77535l0.3615,10.13189c0.14971,4.76688 1.04069,10.14639 2.52688,15.72165l239.36687,83.79201l59.83441,-26.31754l0.02191,-0.0725l-272.03004,-270.04118" fill="#00D2B8" stroke="null"/>
   <path id="svg_3" d="m117.88802,356.96222l0.01461,0.0145c-0.01461,-0.09788 -0.06573,-0.20663 -0.06573,-0.30813c0,0.1015 0.01461,0.19575 0.05112,0.29363zm299.20128,57.47447l-59.83441,26.31754l-239.35226,-83.77751c4.57175,17.41453 14.69387,36.98956 25.58646,47.6942l78.11411,77.10387l173.68631,0.22475l21.8217,-67.63536l-0.02191,0.0725l0,0.00001z" fill="#55DDCA" stroke="null"/>
   <path id="svg_4" d="m21.84111,253.83443c-7.734,8.19614 -3.89256,25.10317 8.55925,37.55869l53.71075,53.76246l33.7769,11.80664c-1.48618,-5.57526 -2.37716,-10.95477 -2.52688,-15.72165l-0.3615,-10.13189l-0.1278,-216.77535l-93.03072,139.5011z" fill="#0081C6" stroke="null"/>
   <path id="svg_5" d="m359.21942,117.11733c-5.61609,-1.42463 -11.00214,-2.3055 -15.88427,-2.45775l-10.7867,-0.36975l-217.67662,0.029l302.26859,300.04536l0.02556,0l26.54682,-59.45735l-84.49338,-237.78951" fill="#0079B3" stroke="null"/>
   <path id="svg_6" d="m358.94556,117.05933c0.11685,0.02538 0.20814,0.058 0.28482,0.06888l-0.01095,-0.01088c-0.06573,-0.03263 -0.15702,-0.03263 -0.27387,-0.058zm48.28819,25.51642c-10.96928,-10.98014 -30.42842,-20.95978 -48.00337,-25.44754l84.48242,237.77863l-26.54682,59.45735l-0.02556,0l64.87356,-20.56828l0.13876,-176.56678l-74.919,-74.65337l0.00001,-0.00001z" fill="#00A4E4" stroke="null"/>
   <path id="svg_7" d="m347.38473,83.78903l-54.14164,-53.35284c-12.52119,-12.31414 -29.55935,-16.14578 -37.79362,-8.48976l-140.57764,92.3724l217.67662,-0.029l10.7867,0.36975c4.88213,0.15225 10.26818,1.03313 15.88427,2.45775l-11.8347,-33.3283l0.00001,0z" fill="#00D2B8" stroke="null"/>
  </g>
 </g>

</svg>