<svg width="500" height="500" xmlns="http://www.w3.org/2000/svg" preserveAspectRatio="xMinYMin meet">

 <g>
  <title>Layer 1</title>
  <g stroke="null" id="svg_1" fill-rule="evenodd">
   <ellipse stroke="null" id="svg_2" ry="149.12999" rx="246.50001" cy="250.00001" cx="250.00001" fill="#8993BE"/>
   <path stroke="null" id="svg_3" fill="#232531" d="m72.72221,338.30072l27.01486,-158.94218l62.46657,0c27.01293,1.96288 40.52036,17.65925 40.52036,45.13292c0,47.09356 -32.07774,74.565 -60.78151,72.60211l-30.3869,0l-6.75372,41.20715l-32.07967,0zm45.58517,-70.63923l8.44263,-58.86863l21.94813,0c11.81852,0 20.25922,5.88642 20.25922,17.65925c-1.68698,33.36009 -15.19441,39.2465 -30.38883,41.20939l-20.25922,0l-0.00193,0zm78.1405,29.43208l27.01293,-158.93994l32.07967,0l-6.75372,41.20491l30.38883,0c27.01486,1.96288 37.14447,17.65925 33.76858,37.28362l-11.81852,80.45141l-33.76665,0l11.81852,-72.60211c1.68698,-9.81218 1.68698,-15.6986 -10.12961,-15.6986l-25.32595,0l-15.19441,88.30071l-32.07967,0zm102.51512,41.20715l27.01293,-158.94218l62.46849,0c27.01486,1.96288 40.52229,17.65925 40.52229,45.13292c0,47.09356 -32.07967,74.565 -60.78151,72.60211l-30.39076,0l-6.75372,41.20715l-32.07774,0zm45.58324,-70.63923l8.44263,-58.86863l21.95006,0c11.81852,0 20.25922,5.88642 20.25922,17.65925c-1.68698,33.36009 -15.19441,39.2465 -30.38883,41.20939l-20.26115,0l-0.00193,0z"/>
  </g>
 </g>
</svg>