<?xml version="1.0" encoding="utf-8"?>
<!-- Generator: Adobe Illustrator 24.3.0, SVG Export Plug-In . SVG Version: 6.00 Build 0)  -->
<svg version="1.1" id="Layer_1" xmlns="http://www.w3.org/2000/svg" xmlns:xlink="http://www.w3.org/1999/xlink" x="0px" y="0px"
	 viewBox="0 0 512 512" style="enable-background:new 0 0 512 512;" xml:space="preserve">
<style type="text/css">
	.st0{fill:#FFFFFF;}
	.st1{fill:#D2122E;}
</style>
<g id="XMLID_1_">
	<path id="XMLID_46_" class="st0" d="M256,512c141.46,0,256-114.69,256-256S397.46,0,256,0C114.69,0,0,114.69,0,256
		S114.69,512,256,512L256,512L256,512z"/>
	<path id="XMLID_45_" class="st1" d="M467.97,298.86c1.46-7.02,2.49-14.19,3.22-21.21c0.73-7.02,1.02-14.19,1.02-21.65
		c0-59.68-24.14-113.81-63.34-152.87C369.81,64.07,315.68,39.79,256,39.79c-0.88,0-1.76,0-2.63,0l-0.15-8.48c0.88,0,1.76,0,2.78,0
		c62.03,0,118.2,25.16,158.87,65.83s65.83,96.84,65.83,158.87c0,7.46-0.44,14.92-1.17,22.38c-0.73,7.61-1.9,14.92-3.36,22.09
		L467.97,298.86L467.97,298.86L467.97,298.86z"/>
	<path id="XMLID_44_" class="st1" d="M460.21,297.4c1.32-6.73,2.34-13.6,3.07-20.48c0.73-6.88,1.02-13.75,1.02-20.77
		c0-57.49-23.26-109.57-61-147.31c-37.74-37.74-89.82-61-147.31-61c-0.44,0-0.88,0-1.46,0c-0.44,0-0.88,0-1.46,0v-2.05
		c0.44,0,0.88,0,1.46,0c0.44,0,0.88,0,1.46,0c58.08,0,110.74,23.55,148.77,61.59s61.59,90.7,61.59,148.77
		c0,7.02-0.29,14.04-1.02,21.07c-0.73,7.02-1.76,13.9-3.07,20.77L460.21,297.4L460.21,297.4L460.21,297.4z"/>
	<path id="XMLID_43_" class="st1" d="M481.87,301.79c1.46-7.46,2.63-15.07,3.36-22.82c0.73-7.61,1.17-15.21,1.17-23.11
		c0-63.63-25.75-121.27-67.44-162.96S319.63,25.45,256,25.45c-0.44,0-0.88,0-1.46,0c-0.44,0-0.88,0-1.46,0v-2.05
		c0.44,0,0.88,0,1.46,0c0.44,0,0.88,0,1.46,0c64.22,0,122.29,26.04,164.43,68.17S488.45,191.78,488.45,256
		c0,7.9-0.44,15.65-1.17,23.26c-0.73,7.75-1.9,15.51-3.51,22.97L481.87,301.79L481.87,301.79L481.87,301.79z"/>
	<path id="XMLID_42_" class="st1" d="M40.08,243.86c-0.15,2.19-0.15,4.1-0.29,6.14c0,2.05-0.15,4.1-0.15,6.14
		c0,59.68,24.14,113.81,63.34,152.87c39.06,39.06,93.18,63.34,152.87,63.34c5.27,0,10.53-0.15,15.95-0.59s10.68-1.02,15.8-1.76
		l1.17,8.34c-5.56,0.88-10.97,1.46-16.38,1.76c-5.41,0.44-10.83,0.59-16.53,0.59c-62.03,0-118.2-25.16-158.87-65.83
		S31.16,318.03,31.16,256c0-2.19,0-4.24,0.15-6.29c0-2.19,0.15-4.39,0.29-6.29L40.08,243.86L40.08,243.86L40.08,243.86z"/>
	<path id="XMLID_41_" class="st1" d="M47.98,244.74c-0.15,1.9-0.15,3.8-0.29,5.71c0,1.9-0.15,3.8-0.15,5.71
		c0,57.49,23.26,109.57,61,147.31s89.82,61,147.31,61c5.12,0,10.39-0.15,15.51-0.59c5.27-0.44,10.24-0.88,15.36-1.76l0.29,2.05
		c-5.12,0.73-10.24,1.32-15.51,1.76c-5.12,0.44-10.39,0.59-15.65,0.59c-58.08,0-110.74-23.55-148.77-61.59s-61.59-90.7-61.59-148.77
		c0-1.9,0-3.8,0.15-5.71c0-1.9,0.15-3.8,0.29-5.71H47.98L47.98,244.74L47.98,244.74z"/>
	<path id="XMLID_40_" class="st1" d="M26.04,242.54c-0.15,2.19-0.29,4.53-0.29,6.73c0,2.19-0.15,4.53-0.15,6.73
		c0,63.63,25.75,121.27,67.44,162.96S192.37,486.4,256,486.4c5.56,0,11.26-0.15,16.82-0.59c5.71-0.44,11.12-1.02,16.68-1.76
		l0.29,2.05c-5.56,0.88-11.12,1.46-16.82,1.76c-5.56,0.44-11.26,0.59-16.97,0.59c-64.22,0-122.29-26.04-164.43-68.17
		c-42.13-42.13-68.02-100.21-68.02-164.43c0-2.34,0-4.53,0.15-6.73c0-2.34,0.15-4.53,0.29-6.73L26.04,242.54L26.04,242.54
		L26.04,242.54z"/>
	<path d="M315.54,470.75l-5.41,1.46l0.29-9.36L315.54,470.75L315.54,470.75L315.54,470.75z M311.44,457l-5.12,1.32l-1.32,24.14
		l4.68-1.17l0.15-4.68l7.9-2.05l2.63,3.95l4.83-1.32L311.44,457L311.44,457L311.44,457z"/>
	<polygon id="XMLID_37_" points="341.87,446.03 345.53,444.56 354.45,465.77 350.21,467.53 344.65,454.22 342.89,462.85 
		342.16,463.14 334.85,458.31 340.41,471.63 336.16,473.38 327.24,452.17 331.04,450.56 339.68,456.27 	"/>
	<path id="XMLID_36_" d="M368.35,438.71c-3.07,0-4.68,0.29-6.14,1.17c-1.46,0.88-1.9,2.05-1.46,2.93c1.76,3.07,9.36-2.49,13.31,4.39
		c2.19,3.8,0.88,7.46-2.63,9.51c-2.78,1.61-4.68,1.46-6.88,1.32l-2.49-4.24c3.36,0.59,5.12,0.44,6.88-0.59
		c1.46-0.88,1.9-2.05,1.32-3.22c-1.9-3.22-9.36,2.63-13.46-4.53c-2.05-3.51-0.88-7.17,2.78-9.22c1.76-1.02,3.66-1.46,6.29-1.61
		L368.35,438.71L368.35,438.71L368.35,438.71z"/>
	<polygon id="XMLID_35_" points="390,421.45 384.59,425.4 395.85,440.47 392.19,443.25 380.93,428.18 375.66,432.13 373.03,428.76 
		387.51,418.08 	"/>
	<polygon id="XMLID_34_" points="419.99,419.4 410.19,428.76 394.39,412.09 404.04,402.87 406.97,405.94 400.68,411.94 
		403.89,415.45 410.04,409.75 412.96,412.82 406.82,418.52 410.62,422.62 417.21,416.48 	"/>
	<path d="M417.21,394.83l1.46-1.76c1.17-1.32,2.34-1.46,3.66-0.29c1.46,1.32,1.17,2.63,0.44,3.66l-1.61,1.9L417.21,394.83
		L417.21,394.83L417.21,394.83z M411.06,395.56l17.55,14.77l2.93-3.51l-7.17-6l0.88-1.02c1.61-1.9,5.41,0.44,10.53,2.05l3.22-3.8
		c-6.88-2.34-9.36-3.8-11.41-3.07c0.44-2.34-0.29-4.39-2.34-6c-2.63-2.19-6.44-2.49-8.92,0.29L411.06,395.56L411.06,395.56
		L411.06,395.56z"/>
	<path d="M432.42,374.78l1.61-2.49c2.34-3.66,6.14-3.22,9.36-1.17c2.78,1.76,5.41,5.12,2.93,8.92l-1.61,2.49L432.42,374.78
		L432.42,374.78L432.42,374.78z M426.42,376.39l19.31,12.43l4.1-6.44c3.95-6.14,1.76-11.56-3.8-15.21
		c-5.27-3.36-11.56-3.36-15.21,2.34L426.42,376.39L426.42,376.39L426.42,376.39z"/>
	<path d="M458.17,350.06l-2.49,5.12l-6.88-6.29L458.17,350.06L458.17,350.06L458.17,350.06z M445,344.21l-2.34,4.83l17.55,16.68
		l2.05-4.39l-3.51-3.22l3.51-7.46l4.83,0.59l2.19-4.39L445,344.21L445,344.21L445,344.21z"/>
	<polygon id="XMLID_27_" points="456.41,313.93 457.58,310.13 479.52,317.15 478.06,321.54 464.46,317.15 469.72,324.02 
		469.58,324.75 461.24,327.24 474.84,331.63 473.38,336.02 451.58,329 452.75,325.19 462.7,322.12 	"/>
	<path d="M31.01,193.24l24.43-2.05l-4.68,17.26L31.01,193.24L31.01,193.24L31.01,193.24z M69.63,223.09l-10.09-7.75l6.88-25.16
		l12.43-1.02l4.24-15.51l-64.51,6.88l-4.53,16.82l51.35,41.4L69.63,223.09L69.63,223.09L69.63,223.09z"/>
	<path id="XMLID_24_" d="M96.99,164.13c2.05-3.07,2.78-5.56,2.34-7.46c-0.44-1.9-2.63-4.24-6.73-7.02l-44.32-31.31l8.78-12.43
		l44.76,31.6c6.88,4.97,10.97,9.51,12.14,13.75c1.17,4.24-0.29,9.36-4.24,15.21L96.99,164.13L96.99,164.13L96.99,164.13z"/>
	<path d="M118.05,67.44l20.48,13.6L124.2,91.57L118.05,67.44L118.05,67.44L118.05,67.44z M129.9,114.69l-3.07-12.29l20.92-15.51
		l10.53,6.88l12.87-9.51L116.3,49.74l-14.04,10.39l14.77,64.22L129.9,114.69L129.9,114.69L129.9,114.69z"/>
	<polygon id="XMLID_21_" points="180.22,79.73 198.22,43.59 168.52,20.48 186.95,16.24 204.95,30.43 215.19,9.95 233.76,5.85 
		216.5,39.35 249.12,64.37 230.11,68.61 210.07,52.81 198.66,75.63 	"/>
	<path d="M101.08,350.5c0.15,0,26.19-6.29,84.11,19.16c1.02,0.29,11.41,3.95,19.02,5.12c-0.15-0.44-0.73-1.46-2.49-3.07
		c-1.46-1.46-2.93-2.93,0-6c2.93-2.93,4.53-1.46,6,0c12.14,12.14-0.15,17.41-0.29,17.41l-2.05,0.29
		c-8.92-0.73-23.11-5.85-23.26-5.85l-0.29-0.15c-55.59-24.43-79.14-18.72-79.29-18.72c-2.05,0.44-4.1,0.88-4.97-3.22
		C96.84,351.38,98.89,350.94,101.08,350.5L101.08,350.5L101.08,350.5z M225.28,258.78c-1.76,1.61-6.58,6.14-7.17,11.12l-0.29,2.19
		l-1.9,1.02c0,0-9.07,4.83-20.19,6.73c-2.05,0.29-4.1,0.73-4.83-3.51c-0.73-4.1,1.32-4.53,3.51-4.83
		c7.17-1.17,13.17-3.66,15.95-4.97c1.61-5.71,6.14-10.68,8.63-13.17l-3.8-24.43l6.58-4.1l22.97,16.68c1.61,0.88,2.34,1.9,2.34,2.78
		c0.15,0.73-0.15,1.76-1.02,3.07c-5.71,10.97-2.49,12.73-2.49,12.73l0.59,0.44c5.71,4.83,7.31,12.87,7.31,12.87v0.15
		c3.8,21.65-2.93,29.7-4.68,31.45c-3.36,4.24-8.78,16.82-9.8,19.31c-2.63,13.6-15.8,14.04-18.58,13.9
		c-11.56,2.34-15.65,4.68-15.65,4.68l-0.44,0.15c-11.7,5.12-20.48,2.05-22.97,0.88c-10.09-2.19-13.31-6.88-13.31-6.88l-0.44-1.02
		c-3.51-9.65-8.92-11.41-8.92-11.41l-1.32-0.73c-15.36-12.73-4.53-27.06-4.53-27.21l0.44-0.44c0.88-0.88,3.07-3.95,5.12-7.02
		c-1.17-0.29-2.05-1.32-2.05-4.1c0-4.24,2.05-4.24,4.24-4.24l0,0h3.66c0.73-0.44,1.61-0.59,2.93,0h5.56c2.05,0,4.24,0,4.24,4.24
		s-2.05,4.24-4.24,4.24h-4.39c-2.19,3.36-6.88,10.39-8.92,12.58c-0.88,1.32-4.83,8.34,2.93,15.07c2.49,1.17,8.92,5.12,13.02,15.51
		c0.59,0.59,2.78,2.19,8.34,3.36l1.17,0.44c0,0,6.29,3.51,16.24-0.88c1.46-0.73,7.17-3.36,18.58-5.56l1.02-0.15
		c0,0,8.92,0.73,10.39-7.46l0.29-0.88c0,0,6.88-16.82,11.56-22.24l0.59-0.59c0,0,5.41-4.1,2.05-23.7c-0.15-0.88-1.46-5.41-4.53-8.05
		l0,0c-1.76-1.46-7.31-7.17-1.61-20.48l-12.14-8.78l2.49,15.65c0.88,1.46,0.73,2.49,0.29,3.36
		C227.47,257.61,226.89,258.34,225.28,258.78L225.28,258.78z M332.95,414.13L332.95,414.13L332.95,414.13L332.95,414.13
		c0,0.29,0.15,3.22,0.29,2.93l0.15-0.15c0,0,6.73-5.56,9.36-30.87l0.15-0.59c0,0,5.71-25.6,25.45-1.17
		c1.32,1.32,12.73,12.73,13.31,2.93c-1.32-4.1-7.75-23.11-9.07-26.77c-1.32-2.34-9.22-17.55,15.36-17.99h0.29
		c0,0,15.36,0.73,31.45,6.58c1.9,0.73,3.95,1.46,2.49,5.41s-3.36,3.22-5.41,2.49c-14.04-5.12-27.65-6-28.82-6
		c-11.26,0.29-7.9,5.56-7.9,5.56l0.29,0.73c1.17,3.22,9.51,28.09,9.51,28.23l0.29,1.46c-0.59,32.04-27.94,3.22-27.94,3.22
		l-0.29-0.29c-8.19-10.24-10.53-3.8-10.83-2.63c-3.07,28.53-12.29,36.13-12.29,36.13l0.15-0.15c-11.26,10.24-13.75-2.34-14.19-7.17
		c-0.15-0.59-0.15-1.17-0.15-1.76l0,0c0-0.44,0-0.88,0-1.32v-21.94c0-17.55-6.73-12.14-7.75-11.12
		c-23.99,26.33-37.3,68.46-37.3,68.61c-0.59,2.05-1.32,3.95-5.27,2.78c-3.95-1.32-3.36-3.22-2.78-5.27l0,0
		c0-0.15,13.9-44.03,39.2-71.83l0.15-0.15c0,0,21.94-21.94,22.24,16.38c0,0.29,0,0.44,0,0.73v0.15v0.15v0.15L332.95,414.13
		L332.95,414.13z M332.95,414.13L332.95,414.13L332.95,414.13z M316.56,380.05L316.56,380.05L316.56,380.05L316.56,380.05
		L316.56,380.05z M350.94,387.51L350.94,387.51L350.94,387.51L350.94,387.51L350.94,387.51z M181.25,206.85c0,0-5.12,5.85-2.63,6
		c2.49-0.29,17.7-1.17,17.7,11.26v-0.29c0,0,1.61,15.65-15.36,11.41l-1.46-0.59c0,0-1.17-0.88-0.88,8.34c0,0.44,0,0.88,0,1.32l0,0
		c0,0.59,0,1.17,0,1.76v14.63c3.22,4.24,11.56,17.12-7.46,16.97c-0.59,0.15-1.17,0-1.9,0s-1.46,0-2.19-0.29l-8.34-1.17
		c-2.05-0.29-4.24-0.59-3.66-4.68c0.59-4.1,2.63-3.8,4.68-3.66l9.8,1.32c3.66,0.15,3.07-1.76,2.34-3.07
		c-1.32-0.44-1.61-1.32-1.76-2.34c-0.59-0.88-0.88-1.9,0-3.07v-15.8c-1.32-24.14,10.09-19.31,13.17-17.55
		c4.68,0.88,4.39-2.78,4.39-2.78v-0.29c0-3.95-8.63-2.78-8.63-2.78h-0.44c-21.65,0-3.95-19.89-3.8-20.04c1.46-1.61,2.78-3.22,6-0.44
		C184.03,203.63,182.56,205.24,181.25,206.85L181.25,206.85L181.25,206.85z M156.82,203.04c0,0-7.02-7.46-8.05-9.36
		c-0.29-0.59-0.59-1.17-0.73-1.76c-2.05-3.07-9.65-16.24,15.07-13.9l0.88,0.15c0.15,0,64.8,18.58,165.74,118.35l0,0
		c0,0,14.63,14.04-5.27,20.04l-0.29,0.15c0,0-8.48,1.61-7.75,10.39c2.19,3.22,6.14,11.7-10.39,15.95h-0.29c0,0-10.68,1.76-15.36,3.8
		l-1.02,0.29c0,0-12.29,2.34-10.97-18.87l0.15-1.02c0,0,2.78-8.48-1.46-14.04c-1.32-1.61-3.22-2.05-4.83-2.34
		c-5.71-1.17-10.39-2.19-9.36-14.63c0-0.44,0-5.12,1.76-9.22c0.73-1.9,1.61-3.95,5.41-2.34c3.95,1.61,3.07,3.51,2.34,5.41
		c-1.02,2.78-1.02,6.14-1.02,6.14v0.44c-0.44,5.27,0.88,5.56,2.63,5.85c3.22,0.73,6.73,1.46,9.8,5.56c6,7.9,3.66,18.43,2.93,21.07
		c-0.44,7.9,0.44,9.36,0.88,9.51c5.56-2.34,14.92-3.8,16.53-4.1c6.58-1.76,5.27-3.22,5.27-3.22l-1.17-2.19
		c-2.49-16.53,12.14-20.48,14.04-20.77c5.85-1.76,1.61-5.85,1.61-5.85l0,0c-95.23-94.21-156.67-114.54-161.79-116.15
		c-8.05-0.73-6.73,1.02-6.73,1.02l0.88,2.49c0,0,0-0.59,0.29-0.15c0.44,0.88,6.58,7.46,6.73,7.46c1.46,1.46,2.93,3.07-0.15,6
		C159.6,206.12,158.13,204.65,156.82,203.04L156.82,203.04L156.82,203.04z M147.6,190.03L147.6,190.03L147.6,190.03L147.6,190.03
		L147.6,190.03z M257.61,328.27c0,0-5.12,19.16-9.95,27.36l-0.29,0.29c0,0-8.34,11.41,1.32,6.14l0.44-0.29
		c0,0,13.75-5.41,22.82-6.58c2.05-0.29,4.24-0.59,4.68,3.66c0.44,4.24-1.61,4.39-3.66,4.68c-7.31,0.88-19.02,5.41-20.63,6
		c-40.81,22.24-14.19-15.36-11.85-18.43c4.24-7.31,8.92-25.01,8.92-25.16c0.59-2.05,1.02-4.1,5.12-3.07
		C258.63,324.32,258.19,326.22,257.61,328.27L257.61,328.27L257.61,328.27z M367.76,106.64c9.65,2.63,50.03,17.26,50.03,75.92l0,0
		c0,0.29,2.19,88.8-80.6,88.8h0.29c-0.15,0-38.03,3.36-56.91-40.52l-0.15-0.44c0-0.15-9.65-30.43-25.75-30.28l-0.88-0.15
		c0,0-4.68-1.17-11.41,4.39c-1.61,1.32-3.22,2.63-5.85-0.59c-2.63-3.22-1.02-4.53,0.59-5.85c8.48-6.88,15.95-6.44,17.99-6.14
		c20.92,0.15,32.18,32.18,33.35,35.84c16.38,38.18,48.42,35.25,48.42,35.25h0.29c74.17,0,72.12-80.02,72.12-80.31l0,0
		c0-47.4-28.53-62.61-40.23-66.85v25.45c21.8,15.95,22.38,34.08,22.38,34.08c0.15,2.05,0.15,4.24-3.95,4.39
		c-4.24,0.15-4.24-1.9-4.39-3.95l0,0c0,0-0.44-14.63-19.6-28.23c-1.61-0.29-2.34-1.02-2.63-2.05c-0.59-0.73-0.88-1.76-0.15-3.22
		v-30.28c-0.15-0.59-0.15-1.32,0-2.19c0-1.32,0.15-2.49,1.32-3.22c0.88-1.02,2.05-0.88,3.36-0.59
		C366.45,106.06,367.18,106.35,367.76,106.64L367.76,106.64z M288.48,227.91L288.48,227.91L288.48,227.91L288.48,227.91
		L288.48,227.91z M163.84,224.11c0,0-12.14,20.04-13.46,23.26l-0.59,1.02c0,0-3.51,4.39,1.02,5.27l1.17,0.29c0,0,1.9,1.02,5.12,1.02
		c2.05,0,4.24,0,4.24,4.24s-2.05,4.24-4.24,4.24c-3.95,0-7.02-1.02-8.34-1.61c-15.51-3.22-7.61-15.51-5.85-18.14
		c2.34-4.97,13.75-23.84,13.75-23.84c1.02-1.76,2.19-3.66,5.71-1.46C165.89,220.45,164.86,222.35,163.84,224.11L163.84,224.11
		L163.84,224.11z M148.19,261.56L148.19,261.56L148.19,261.56L148.19,261.56L148.19,261.56z M243.13,275.02L243.13,275.02
		C243.13,275.16,243.13,275.16,243.13,275.02L243.13,275.02L243.13,275.02z M239.18,267.26L239.18,267.26
		C239.18,267.41,239.18,267.41,239.18,267.26L239.18,267.26L239.18,267.26z M180.81,166.91c0,0,14.92,0,49.88-22.67l-0.15,0.15
		c0.15-0.15,41.4-29.26,74.31-29.4h0.15c0,0,23.26,0.59,38.91,11.26c1.76,1.17,3.51,2.34,1.02,5.85c-2.34,3.51-4.1,2.19-5.85,1.02
		c-13.17-9.07-33.21-9.8-34.23-9.8c-30.28,0.29-69.19,27.79-69.34,27.94l-0.15,0.15c-37.16,24.14-54.27,24.14-54.42,24.14
		c-2.05,0-4.24,0-4.24-4.1C176.57,166.91,178.61,166.91,180.81,166.91L180.81,166.91L180.81,166.91z M345.53,338.8
		c0,0-10.09,0.73-10.24,9.8c0,0.59,0.73,7.46,9.8,7.46l1.17,0.15c0,0,6.14,2.05,10.39-9.36c0.73-1.9,1.46-3.95,5.41-2.49
		s3.22,3.51,2.49,5.41c-6,16.24-16.97,15.21-19.75,14.63c-17.41-0.29-17.85-15.65-17.85-15.65v-0.15
		c0-16.97,17.85-18.29,17.85-18.29c2.05-0.15,4.24-0.44,4.53,3.8C349.77,338.51,347.57,338.65,345.53,338.8L345.53,338.8
		L345.53,338.8z M187.83,400.97c0.15,0,25.31,4.1,28.38,37.89c0.15,2.05,0.44,4.24-3.8,4.53c-4.24,0.44-4.39-1.76-4.53-3.8
		c-2.49-27.36-21.36-30.28-21.5-30.28c-2.05-0.29-4.1-0.73-3.51-4.83C183.73,400.38,185.78,400.68,187.83,400.97L187.83,400.97
		L187.83,400.97z"/>
</g>
</svg>
