<svg width="800" height="800" xmlns="http://www.w3.org/2000/svg" xml:space="preserve" version="1.1">
 <g>
  <title>Layer 1</title>
  <g stroke="null">
   <path stroke="null" fill="#305a8a" d="m400.00254,42.82355c203.33253,0 369.17395,160.45077 369.17395,357.17729s-165.84312,357.17564 -369.17395,357.17564c-203.33593,0 -369.17905,-160.44912 -369.17905,-357.17564s165.84312,-357.17729 369.17905,-357.17729z"/>
   <path stroke="null" fill="#fff" d="m400.00254,53.27193c197.38631,0 358.37794,155.75697 358.37794,346.72891c0,190.97029 -160.99163,346.72891 -358.37794,346.72891c-197.38801,0 -358.38134,-155.75862 -358.38134,-346.72891c0.0017,-190.97194 160.99333,-346.72891 358.38134,-346.72891z"/>
   <path stroke="null" fill="#305a8a" d="m400.00254,154.26743c139.89088,0 253.9876,110.38802 253.9876,245.73176c0,135.34539 -114.09502,245.73341 -253.9876,245.73341c-139.89258,0 -253.9893,-110.38802 -253.9893,-245.73341c0,-135.34374 114.09672,-245.73176 253.9893,-245.73176z"/>
   <path stroke="null" fill="#305a8a" d="m60.70248,352.8787l70.4945,5.96674l-5.49745,60.79235l-15.19363,-1.28611l3.43378,-37.95822l-11.22948,-0.9506l-3.1737,35.0949l-15.01514,-1.26966l3.1754,-35.0949l-13.66713,-1.15618l-3.56127,39.38905l-15.39082,-1.30091l5.62494,-62.22648zm25.07,102.53982l-0.17849,0.03947l-1.95658,0.25327c-2.65523,0.59371 -4.36872,2.13474 -5.16597,4.65432c-0.80235,2.50807 -0.63746,6.09338 0.46747,10.73454c0.84825,3.55406 2.04667,6.20193 3.60037,7.95346c1.552,1.74989 3.26209,2.41597 5.12857,1.99988c2.80142,-0.62496 4.16303,-5.10166 4.07804,-13.43504l-0.0306,-2.18737l-0.0136,-2.32716c-0.20059,-13.19657 0.95534,-21.97893 3.45418,-26.35366c1.15253,-2.03935 2.75212,-3.7876 4.79369,-5.26613c1.01824,-0.7039 2.08917,-1.28282 3.22129,-1.76798a23.23242,22.47725 0 0 1 3.94545,-1.21045c6.73667,-1.50484 12.5724,0.24012 17.54458,5.22666c4.96028,4.99147 8.77654,13.06335 11.43687,24.21399c2.63313,11.03387 2.92211,19.57776 0.84655,25.61357c-2.06537,6.03582 -6.56838,9.82177 -13.47334,11.36444l-0.80235,0.17598l-4.97558,-20.85071l0.32298,-0.07072c2.33395,-0.52135 3.87575,-1.97521 4.61861,-4.36158c0.37058,-1.19236 0.53207,-2.58044 0.48277,-4.156c-0.0476,-1.57392 -0.32638,-3.42578 -0.82955,-5.53256c-0.76155,-3.19388 -1.77639,-5.55394 -3.03431,-7.06536c-1.26812,-1.50978 -2.72663,-2.07553 -4.37722,-1.70549c-2.83542,0.63319 -4.19023,5.72663 -4.07804,15.2869l0.09859,4.32046c0.051,6.97655 -0.12409,11.89237 -0.53377,14.76719c-0.41307,2.87154 -1.12363,5.49309 -2.12996,7.87617a17.42219,16.85588 0 0 1 -5.14727,6.58842c-2.28295,1.7795 -4.94158,3.0064 -7.95549,3.67905c-7.01205,1.56569 -13.15206,-0.38978 -18.42682,-5.8582c-5.27646,-5.47829 -9.3307,-14.1225 -12.15083,-25.9425c-2.78952,-11.69172 -2.99521,-20.57441 -0.61366,-26.60529c2.37815,-6.0424 7.56792,-9.95992 15.57441,-11.746l1.02843,-0.23189l5.23057,21.9263zm57.79461,70.10922l-12.83758,7.17062l6.71627,11.25918c1.5962,2.67418 3.30799,4.35171 5.13367,5.03423c1.83758,0.67759 3.84515,0.40458 6.02442,-0.81245c2.08407,-1.16276 3.26379,-2.70214 3.57487,-4.60498c0.30258,-1.89627 -0.32808,-4.16422 -1.89368,-6.78906l-6.71797,-11.25754zm-60.38185,7.15417l61.28449,-34.23147l21.70762,36.37608c4.7631,7.98307 6.75877,14.60766 5.97852,19.85899c-0.77345,5.26119 -4.38912,9.68362 -10.84531,13.28867s-12.6149,4.52275 -18.48292,2.72187c-5.87823,-1.79265 -10.83171,-6.07693 -14.87915,-12.85777l-10.55463,-17.68971l-22.31448,12.4647l-11.89414,-19.93135zm89.75088,69.25895c-4.99768,5.00792 -7.58662,9.85795 -7.7617,14.5501c-0.16829,4.70037 2.06877,9.21654 6.71457,13.56003c4.6747,4.36487 9.4463,6.42724 14.32159,6.1937c4.88549,-0.24012 9.74888,-2.78437 14.58677,-7.63276c5.26286,-5.27435 8.07109,-10.43029 8.42296,-15.4859c0.34338,-5.04739 -1.83588,-9.77408 -6.55138,-14.18335c-4.34662,-4.06225 -9.13012,-5.83682 -14.34199,-5.33685c-5.22207,0.50655 -10.34894,3.2827 -15.39082,8.33502zm-11.84144,37.31516c-10.09736,-9.43364 -15.58291,-18.7686 -16.46005,-27.99665c-0.88734,-9.23792 2.86092,-18.04002 11.23968,-26.4326c8.10508,-8.12122 17.10601,-11.78547 27.00448,-10.99604c9.89847,0.80916 20.00772,6.0243 30.34306,15.68161c10.21465,9.54054 15.80389,19.02516 16.78303,28.44728c0.96894,9.42706 -2.74532,18.34757 -11.13939,26.75824c-8.19688,8.21332 -17.1808,11.86277 -26.96878,10.95986c-9.79138,-0.90291 -20.05872,-6.38448 -30.80204,-16.4217zm104.43114,4.74149l-6.42389,12.19663l11.97234,5.90096c2.87622,1.41932 5.24417,1.97192 7.09705,1.64628c1.84948,-0.31577 3.33519,-1.51636 4.44012,-3.61162c1.12023,-2.1298 1.27662,-3.99811 0.49977,-5.60821c-0.78365,-1.6249 -2.65013,-3.16099 -5.61474,-4.62307l-11.97064,-5.90096zm-46.72322,38.23123l32.12625,-61.00287l36.15499,17.82293c3.76526,1.85515 6.89986,3.46689 9.397,4.84674c2.51584,1.37327 4.38062,2.51794 5.61984,3.43565c2.50224,1.7943 4.34322,3.71523 5.50765,5.76939c1.15423,2.04922 1.69989,4.43887 1.6234,7.17555c-0.07989,2.74654 -0.80405,5.42895 -2.18266,8.04556c-2.11806,4.02278 -5.22547,6.59993 -9.30011,7.73637c-4.07804,1.12493 -8.71024,0.68088 -13.88301,-1.3486c2.50564,1.23348 4.53361,2.54096 6.06521,3.9241c1.5316,1.38314 2.66543,2.84522 3.39808,4.38296c1.38031,2.69227 1.26642,6.07693 -0.34168,10.1507l-4.17663,10.7033a44.58816,43.13882 0 0 0 -1.6115,4.99476l-1.41771,6.38284l-21.8844,-10.79046c0.0663,-0.62003 0.17849,-1.25815 0.32128,-1.89298c0.13599,-0.65292 0.40797,-1.53445 0.78535,-2.6676l0.64086,-1.92423c0.32978,-0.91606 0.73945,-1.82226 1.21882,-2.73339l3.84175,-8.73467c0.70885,-1.34367 1.13893,-2.55741 1.28002,-3.60833c0.14449,-1.06244 0.0527,-2.01468 -0.29068,-2.87647c-0.57456,-1.49662 -2.54134,-3.0804 -5.90202,-4.73655l-13.29315,-6.55388l-12.5911,23.9048l-21.10585,-10.40562zm112.55322,42.29184l10.53593,-52.43924l-25.84685,-4.8599l2.96631,-14.76719l75.39699,14.17841l-2.96631,14.76719l-25.85705,-4.86319l-10.53593,52.43924l-23.69309,-4.45532zm74.55894,9.29055l-8.62525,-67.9531l62.60361,-7.4354l1.85968,14.64549l-39.09071,4.64281l1.37181,10.82664l36.14309,-4.2925l1.83588,14.47116l-36.1397,4.2925l1.66929,13.17354l40.56791,-4.82043l1.88178,14.83627l-64.07741,7.61302zm146.30797,-87.36475c-2.07557,-2.65773 -4.52171,-4.23987 -7.30783,-4.74642c-2.80482,-0.51148 -5.92582,0.08059 -9.3834,1.78608c-5.47535,2.69885 -8.79524,6.4404 -9.98686,11.24274c-1.17802,4.80892 -0.15299,10.28885 3.0972,16.46281c3.1244,5.92727 6.98485,9.77408 11.57116,11.55028c4.60501,1.77292 9.59589,1.33873 14.97944,-1.31571c3.90465,-1.92587 6.55648,-4.37967 7.96229,-7.36468c1.41431,-2.99324 1.47041,-6.42066 0.18869,-10.29543l22.31108,-10.99933c3.40318,8.32351 3.0683,15.90199 -1.02843,22.75026c-4.08994,6.84333 -12.22732,13.26729 -24.38664,19.26199c-11.72075,5.77761 -22.24478,7.6196 -31.58059,5.51282c-9.3426,-2.08869 -16.52805,-7.90741 -21.55123,-17.44466c-5.46855,-10.38424 -6.3287,-20.09911 -2.55324,-29.13474c3.76866,-9.01754 11.89584,-16.61412 24.37305,-22.76177c10.9201,-5.3829 20.16581,-7.66236 27.73883,-6.84662c3.95395,0.37169 7.41323,1.46702 10.33874,3.27776c3.1414,1.9308 5.61134,4.63294 7.44043,8.10806l-22.22268,10.95657zm98.29453,-40.23275l10.73312,10.75099l-43.9575,41.07151l-49.16086,-49.24865l17.38819,-16.24408l38.42435,38.49766l26.57271,-24.82744zm-34.68289,-41.29683l11.72925,-19.65341l34.89367,19.49388c5.06398,2.82713 9.51599,3.8024 13.32375,2.91265c3.81796,-0.88646 7.13105,-3.68563 9.95117,-8.40903c2.71643,-4.54907 3.50858,-8.68533 2.38665,-12.38576c-1.13213,-3.70701 -4.19023,-6.95188 -9.17601,-9.73789l-34.89707,-19.49388l11.39097,-19.08601l34.64889,19.35738c9.52279,5.31547 14.90975,11.92033 16.15577,19.79156s-1.5877,17.60748 -8.49606,29.18408c-6.87266,11.5141 -14.0581,18.64031 -21.55463,21.36712c-7.49992,2.72681 -16.06908,1.39959 -25.70406,-3.98331l-34.65229,-19.35738zm60.85782,-92.73614l14.39978,3.21526l2.80142,-11.75093c0.68336,-2.87154 0.59836,-5.14607 -0.26178,-6.82524c-0.87034,-1.68246 -2.49714,-2.80082 -4.89739,-3.33861c-2.30165,-0.51313 -4.25313,-0.19407 -5.84423,0.96376c-1.5877,1.15782 -2.71643,3.14948 -3.39298,5.98648l-2.80482,11.74929zm25.84685,5.77432l15.14943,3.38466l3.22639,-13.52385c0.76325,-3.19388 0.70715,-5.75623 -0.18189,-7.68703c-0.88904,-1.91765 -2.58554,-3.16099 -5.07248,-3.71852c-2.46654,-0.55095 -4.54211,-0.14966 -6.2216,1.1973c-1.68289,1.35518 -2.90851,3.62971 -3.67177,6.82524l-3.22809,13.5222zm23.96167,28.16605l-68.951,-15.39873l9.86107,-41.33137c0.61366,-2.5607 1.16953,-4.67899 1.67269,-6.37132c0.50147,-1.67917 1.00634,-3.10507 1.5333,-4.26783c0.52187,-1.17592 1.03863,-2.18079 1.5537,-3.01791a14.69556,14.21789 0 0 1 1.94808,-2.46696c1.85968,-2.03442 4.12734,-3.39453 6.77237,-4.08363c2.65863,-0.69733 5.59434,-0.67759 8.81564,0.04112c3.86385,0.86343 6.77577,2.64787 8.74594,5.37961c1.98547,2.72352 3.1533,6.59499 3.53237,11.6062c2.72323,-5.33027 5.84423,-8.95011 9.3698,-10.84474c3.51538,-1.89791 7.74641,-2.29591 12.66589,-1.1973c6.03971,1.3486 10.25205,4.14448 12.6098,8.36627c2.36115,4.22014 2.70963,9.77408 1.06583,16.65195l-11.19549,46.93465zm18.49312,-93.28709l-70.4928,5.96674l-5.50085,-60.794l15.19533,-1.28446l3.43378,37.95986l11.23118,-0.95224l-3.1737,-35.0949l15.01004,-1.26966l3.1737,35.0949l13.66543,-1.15618l-3.56297,-39.39234l15.39252,-1.3042l5.62834,62.22648zm-606.48052,-184.81277c-3.1703,-1.29926 -6.10601,-1.48511 -8.78334,-0.57398c-2.69263,0.91442 -5.08948,2.93732 -7.20414,6.08516c-3.34369,4.98325 -4.28543,9.83328 -2.83542,14.56655c1.46701,4.73326 5.18807,8.98301 11.19209,12.7558c5.76773,3.62478 11.09519,5.08851 15.98918,4.40927c4.90079,-0.69075 9.00093,-3.48334 12.29192,-8.386c2.38835,-3.55899 3.41678,-6.96339 3.0887,-10.22964c-0.31958,-3.27612 -2.04497,-6.271 -5.15747,-9.00768l13.63823,-20.31784c7.25004,5.56052 10.87591,12.28873 10.86571,20.20107c-0.0034,7.90412 -3.73126,17.40519 -11.16149,28.47524c-7.16164,10.67205 -15.32622,17.35914 -24.50224,20.05306c-9.17092,2.71036 -18.40133,1.14467 -27.68103,-4.68393c-10.10416,-6.34994 -15.86509,-14.34617 -17.2658,-23.9969c-1.39901,-9.63264 1.71859,-20.14351 9.3426,-31.50302c6.67547,-9.94512 13.50734,-16.39374 20.48369,-19.34751c3.61737,-1.59365 7.17864,-2.31894 10.64812,-2.16434c3.71936,0.15624 7.25514,1.29926 10.63452,3.42249l-13.58383,20.24219zm42.42249,-61.2693l9.28141,10.33161l10.14155,-8.52909c2.43594,-2.04922 3.85365,-3.96686 4.23613,-5.75294c0.38928,-1.77456 -0.20569,-3.55735 -1.80019,-5.33356c-1.6183,-1.80252 -3.35049,-2.64458 -5.18467,-2.54919c-1.85288,0.09374 -4.02364,1.19401 -6.53438,3.30572l-10.13985,8.52744zm19.13568,56.23178l-46.42574,-51.66955l30.62355,-25.75666c3.189,-2.68076 5.90882,-4.88951 8.16628,-6.61473c2.25916,-1.74332 4.05594,-2.98502 5.39886,-3.75306c2.65523,-1.57227 5.18467,-2.50314 7.59002,-2.77944c2.39515,-0.26808 4.89059,0.1365 7.48462,1.23183c2.60253,1.10191 4.90079,2.75641 6.89306,4.97174c3.0615,3.40769 4.36702,7.16075 3.93185,11.23945c-0.45387,4.08034 -2.61103,8.07023 -6.49529,11.94993c2.12316,-1.78443 4.13414,-3.11494 6.03122,-3.97015c1.89878,-0.85686 3.72616,-1.32393 5.47365,-1.40616c3.0972,-0.2286 6.2981,1.14138 9.60099,4.10995l8.69155,7.75611a45.21032,43.74076 0 0 0 4.18343,3.31394l5.58414,3.66425l-18.53562,15.58951a18.35883,17.76208 0 0 1 -1.69479,-0.99829c-0.57456,-0.36675 -1.31572,-0.94073 -2.26256,-1.7022l-1.6047,-1.29597c-0.75305,-0.64141 -1.46871,-1.34531 -2.16226,-2.11665l-6.93046,-6.71834c-1.02333,-1.13973 -2.02457,-1.98014 -2.97991,-2.49985c-0.96384,-0.52957 -1.91068,-0.80258 -2.86602,-0.81738c-1.65229,-0.04441 -3.90295,1.12658 -6.74857,3.51952l-11.26178,9.47146l18.19224,20.24877l-17.87776,15.03198zm38.99551,-114.90584l21.74841,-8.50113l15.09334,36.14583c2.18946,5.2431 5.07588,8.66559 8.64395,10.22964c3.57317,1.57721 7.96569,1.34531 13.19286,-0.69733c5.03168,-1.96699 8.29207,-4.753 9.76248,-8.33831c1.46361,-3.59847 1.12193,-7.97484 -1.03523,-13.14065l-15.09504,-36.14747l21.12285,-8.25608l14.98794,35.89255c4.11544,9.8596 4.16133,18.2752 0.13429,25.21722c-4.03044,6.9453 -12.45851,12.93013 -25.26719,17.93805c-12.74069,4.97996 -22.94174,6.31376 -30.58275,3.99647c-7.64271,-2.31729 -13.54984,-8.46659 -17.71797,-18.44789l-14.98794,-35.89091zm140.45864,16.94634l43.02596,-0.72693l0.26858,14.94481l-70.5064,1.19072l-0.33828,-18.8426l39.2352,-35.24457l-37.6968,0.63483l-0.27198,-15.0402l67.00633,-1.13151l0.32808,18.18968l-41.05068,36.02577zm55.25498,15.83621l14.71426,-66.96632l61.69756,12.68837l-3.1703,14.43498l-38.52634,-7.92222l-2.34415,10.66876l35.61783,7.32521l-3.1346,14.26065l-35.61783,-7.32521l-2.85242,12.98276l39.97805,8.22154l-3.2111,14.62082l-63.15097,-12.98934zm72.22839,19.62381l32.12455,-61.00122l21.54443,10.62106l-32.12455,61.00122l-21.54443,-10.62106zm88.01869,-12.74265l-8.71194,10.78717l10.58862,8.0028c2.54644,1.92423 4.7614,2.90607 6.64318,2.92581c1.87668,0.03289 3.57317,-0.87166 5.06908,-2.72516c1.5214,-1.88311 2.04157,-3.68892 1.5996,-5.4125c-0.45217,-1.74167 -1.98207,-3.59189 -4.60161,-5.57532l-10.58692,-8.0028zm-53.40379,28.90449l43.56652,-53.95067l31.97326,24.16958c3.33009,2.51629 6.08901,4.67735 8.26997,6.49303c2.20136,1.81239 3.80096,3.28105 4.83789,4.41092c2.10447,2.2219 3.53237,4.4471 4.27013,6.68051c0.73095,2.22519 0.79385,4.67077 0.17849,7.3433c-0.62046,2.68076 -1.85968,5.18061 -3.72786,7.49461c-2.87452,3.55899 -6.43069,5.51447 -10.65492,5.87958c-4.22253,0.35031 -8.68475,-0.94073 -13.36285,-3.88957c2.21836,1.67588 3.94715,3.33039 5.17957,4.97174c1.23242,1.6397 2.05517,3.28598 2.46994,4.92898c0.82615,2.89785 0.0425,6.20028 -2.33735,9.90236l-6.2114,9.73625a44.55076,43.10264 0 0 0 -2.56344,4.60498l-2.65013,6.00292l-19.35667,-14.63069c0.18529,-0.597 0.42497,-1.20058 0.69016,-1.80088c0.26178,-0.61509 0.70036,-1.42919 1.29872,-2.47189c0.59156,-1.04434 0.92644,-1.63477 1.00634,-1.77127a22.64256,21.90656 0 0 1 1.73559,-2.45709l5.49065,-7.86465c0.96214,-1.18907 1.6268,-2.30085 1.96847,-3.30736c0.35528,-1.01474 0.45217,-1.96534 0.28558,-2.87811c-0.26858,-1.57556 -1.88858,-3.49321 -4.85999,-5.73814l-11.75645,-8.88762l-17.07541,21.14181l-18.66481,-14.11263zm106.05454,52.09552c-6.03971,3.79253 -9.68768,7.95511 -10.949,12.48937c-1.25452,4.54413 -0.12919,9.43035 3.39298,14.6718c3.53577,5.27106 7.70561,8.32022 12.5129,9.1524c4.81409,0.82725 10.14325,-0.59207 15.98238,-4.26125c6.35419,-3.99318 10.29284,-8.40738 11.80575,-13.25742c1.5112,-4.84346 0.48787,-9.92374 -3.0836,-15.24578c-3.29099,-4.90266 -7.54072,-7.67552 -12.73219,-8.32186c-5.20677,-0.64141 -10.84361,0.94731 -16.92922,4.77274zm-20.22021,33.78248c-7.64271,-11.39075 -10.81641,-21.6796 -9.52789,-30.86325c1.28512,-9.19352 6.98485,-16.95456 17.09921,-23.30944c9.78458,-6.14765 19.40936,-7.7594 28.86756,-4.83359c9.4548,2.94061 18.09535,10.22306 25.91995,21.88189c7.73281,11.52068 10.9728,21.97893 9.73528,31.37145c-1.24432,9.39745 -6.93896,17.2802 -17.07201,23.64823c-9.89677,6.21837 -19.50286,7.81696 -28.82846,4.80892c-9.32731,-3.00969 -18.05795,-10.58653 -26.19363,-22.70421z"/>
   <path stroke="null" fill="#fff" d="m418.13698,537.86581l9.4225,28.40617l30.96353,0l-25.22979,17.63544l9.81347,28.30584l-25.22979,-17.21277l-24.71132,17.21277l9.53129,-28.12987l-25.35898,-17.91009l31.2967,0.02467l9.50239,-28.33216zm137.09626,-204.90694l9.4225,28.40617l30.96353,0l-25.22979,17.63709l9.81347,28.30255l-25.22979,-17.21112l-24.71132,17.21112l9.52789,-28.12987l-25.35898,-17.90845l31.2984,0.02467l9.50409,-28.33216zm-106.49481,64.05367l5.96662,17.97917l19.59465,0l-15.96708,11.16051l6.2114,17.91503l-15.96708,-10.89407l-15.6441,10.89407l6.03292,-17.80319l-16.04868,-11.33484l19.80714,0.01645l6.01422,-17.93312zm-53.56018,-193.83032l9.4259,28.40452l30.95673,0l-25.22639,17.63873l9.81007,28.3042l-25.22639,-17.21277l-24.71132,17.21277l9.52789,-28.12987l-25.35728,-17.90845l31.2984,0.02467l9.50239,-28.3338zm-142.57671,136.96535l9.4242,28.40452l30.96183,0l-25.22809,17.63709l9.81177,28.3042l-25.22809,-17.21112l-24.71302,17.21112l9.53129,-28.12822l-25.35898,-17.90845l31.2984,0.02467l9.50069,-28.3338z"/>
  </g>
 </g>

</svg>