<svg width="800" height="800" xmlns="http://www.w3.org/2000/svg" xml:space="preserve" version="1.1">

 <g>
  <title>Layer 1</title>
  <path stroke="null" id="svg_1" d="m563.27894,488.13888c0,141.15342 -90.09473,176.9652 -274.40524,236.40151c23.5421,10.1248 55.27894,22.96829 109.56315,39.84295c141.29999,-43.90537 277.43682,-101.99796 277.43682,-255.99487l0,-326.21221l-112.59473,0l0,305.96262zm-107.47894,-305.96262l-334.79997,0l0,64.84245l222.15788,0l0,207.37085c0,94.56061 -9.23684,103.34168 -195.53683,158.71557c13.83158,22.49955 32.82631,43.46788 56.32105,62.155c210.88419,-62.155 251.85788,-93.87312 251.85788,-201.27722l0,-291.80665zm-290.79471,-146.55956l0,57.4051c0,14.8747 -13.31053,24.9995 -39.93158,24.9995l-4.07368,0l0,-12.15601l3.07895,0c12.26842,0 19.46842,-4.06242 19.46842,-12.84349l0,-45.24909l-19.46842,0l0,-12.15601l40.92631,0zm37.89473,70.24859l19.46842,0l0,-70.24859l20.46316,0l0,68.90487c0,8.78107 -7.15263,12.84349 -20.46316,12.84349l-19.46842,0c-13.31053,0 -20.46316,-4.71866 -20.46316,-12.84349l0,-68.90487l20.46316,0l0,70.24859zm96.25262,-19.59336l0,-49.96775l20.46316,0l0,50.65524c0,22.96829 -18.42631,31.06188 -50.16315,31.06188l-10.23158,0l0,-82.4046l20.46316,0l0,68.21738l1.04211,0c13.31053,0.68749 18.42631,-7.43735 18.42631,-17.56215l0,0zm58.35789,-37.81174l0,21.62457l23.5421,0l-4.07368,11.46852l-20.46316,0l0,23.65578l30.69473,0l-3.07895,12.15601l-47.08421,0l0,-81.74836l46.08947,0l3.07895,12.15601l-28.65789,0l0,0.68749l-0.04737,0zm82.9421,-12.84349l19.46842,0l0,81.71711l-19.46842,0l0,-27.68695l-19.46842,-28.37443l-1.04211,0l0,56.06138l-19.46842,0l0,-81.71711l19.46842,0l19.46842,31.06188l1.04211,0l0,-31.06188zm91.08947,12.84349l-19.46842,0l0,69.56111l-20.46316,0l0,-69.56111l-19.46842,0l3.07895,-12.15601l53.2421,0l3.07895,12.15601zm30.7421,57.4051l19.46842,0l0,-69.56111l20.46316,0l0,68.90487c0,8.78107 -7.15263,12.84349 -20.46316,12.84349l-19.46842,0c-13.31053,0 -20.46316,-4.71866 -20.46316,-12.84349l0,-68.90487l20.46316,0l0,69.56111zm55.27894,-14.8747l20.46316,0l0,16.21843l18.42631,0l0,-11.46852c0,-5.40614 -2.03684,-8.09359 -8.19474,-10.81228l-19.46842,-8.09359c-7.15263,-3.37493 -10.23158,-8.78107 -10.23158,-12.84349l0,-14.8747c0,-8.78107 8.19474,-12.84349 19.46842,-12.84349l19.46842,0c13.31053,0 19.46842,4.71866 19.46842,12.84349l0,10.1248l-19.46842,3.37493l0,-16.18718l-17.38421,0l0,12.15601c0,4.06242 2.03684,6.74986 8.19474,9.46856l18.42631,7.43735c8.19474,3.37493 12.26842,8.09359 12.26842,14.8747l0,15.53094c0,8.78107 -8.19474,12.15601 -19.46842,12.15601l-18.42631,0c-13.31053,0 -20.46316,-3.37493 -20.46316,-12.15601l0,-14.8747l-3.07895,-0.03125z"/>
 </g>
</svg>